<?xml version="1.0" encoding="utf-8"?>
<!-- Generator: Adobe Illustrator 16.0.3, SVG Export Plug-In . SVG Version: 6.00 Build 0)  -->
<!DOCTYPE svg PUBLIC "-//W3C//DTD SVG 1.1//EN" "http://www.w3.org/Graphics/SVG/1.1/DTD/svg11.dtd">
<svg version="1.1" id="Layer_1" xmlns="http://www.w3.org/2000/svg" xmlns:xlink="http://www.w3.org/1999/xlink" x="0px" y="0px"
	 width="11223.021px" height="3911.761px" viewBox="0 0 11223.021 3911.761" enable-background="new 0 0 11223.021 3911.761"
	 xml:space="preserve">
<path fill-rule="evenodd" clip-rule="evenodd" fill="#E3E3E3" d="M2389.863,3504.759c-8.626,10.683-17.059,21.53-25.902,32.039
	c-12.981,15.45-37.744,30.969-37.339,45.923c1.393,51.197-22.883,78.702-66.385,96.688c-9.33,3.85-16.612,12.633-21.975,25.83
	c23.843-4.497,47.677-8.999,78.412-14.806c-13.414,16.301-22.738,27.667-33.62,40.842c46.173,2.124,85.252-5.642,116.173-41.073
	c21.718-24.868,45.561-48.133,70.435-69.868c11.759-10.301,28.154-15.345,45.795-18.582
	c-68.857,88.502-181.123,148.194-173.069,282.01c-584.124,0-1168.256,0-1752.386,0c20.561-85.771,41.116-171.533,61.456-256.385
	c-50.733-9.381-90.675-15.587-129.894-24.862c-9.82-2.31-25.069-14.841-24.721-22.031c5.318-109.343-79.986-164.906-138.592-235.703
	c-45.924-55.472-101.4-104.143-140.572-163.775c-30.46-46.348-48.571-99.134-39.22-164.144
	c7.725-53.7-26.451-112.083-31.286-169.312c-5.465-64.597-4.433-130.908,3.554-195.269
	c19.061-153.571,86.292-293.585,134.571-438.686c64.86-194.959,137.465-387.371,208.028-580.422
	c35.834-98.022,112.345-155.77,205.256-193.159c65.135-26.202,132.279-47.453,206.053-73.582
	c-17.357-25.63-33.616-49.236-49.375-73.147c-6.738-10.229-19.814-23.25-17.483-31.412c20.606-71.939-4.32-148.408,34.873-220.414
	c124.899-229.45,221.347-474.391,372.298-689.512c21.864-31.173,60.709-52.409,95.109-72.365
	c61.23-35.531,123.948-69.047,188.183-98.722c52.436-24.203,105.413-8.837,153.102,16.982
	c53.82,29.126,105.755,62.032,156.741,95.939c15.991,10.625,30.843,27.845,38.427,45.41c39.284,90.836,77.62,182.167,113.282,274.48
	c46.333,119.953,91.661,240.344,133.71,361.849c20.422,58.989,37.339,120.211,45.965,181.814
	c4.135,29.64-12.144,63.448-23.76,93.604c-11.161,29.033-27.867,55.989-42.793,83.501c-11.565,21.306-8.111,33.754,16.689,42.309
	c80.007,27.583,162.947,49.863,238.072,87.5c90.795,45.473,175.609,103.289,260.924,158.953
	c14.653,9.567,19.765,34.686,27.867,53.226c61.068,139.859,105.297,284.845,136.186,434.373
	c27.844,134.8,61.817,268.336,89.331,403.186c14,68.688,25.663,138.865,27.816,208.707c2.8,90.943,4.36,183.791-11.004,272.814
	c-12.283,71.118-49.907,138.005-77.677,206.221c-15.726,38.664-34.283,76.196-60.948,109.551
	c11.469-41.862,22.968-83.715,34.452-125.548c-5.027-2.19-10.011-4.369-15.029-6.539
	c-72.277,95.488-144.566,190.982-218.436,288.578c15.801,18.907,31.382,37.542,51.536,61.618
	c-40.825,17.369-75.572,34.799-112.202,45.954c-9.917,3.021-26.54-11.776-38.49-20.56c-21.416-15.731-41.634-33.115-62.361-49.813
	c-26.116-36.562-49.01-76.123-79.4-108.726c-23.535-25.295-53.832-50.647-85.831-60.103c-40.039-11.845-84.874-7.422-127.65-10.019
	c-0.088,4.092-0.185,8.179-0.253,12.263c101.833,22.217,190.208,67.211,257.51,149.9
	C2361.478,3497.451,2377.705,3499.447,2389.863,3504.759z M760.119,3088.096c-15.583-69.492-31.164-138.979-46.746-208.448
	c12.037-47.35,24.06-94.69,36.085-142.043c5.57,0.695,11.128,1.375,16.697,2.07c22.87,49.295,44.305,99.327,69.545,147.375
	c6.969,13.254,25.265,20.61,38.367,30.635c0.558,6.98,1.138,13.952,1.706,20.924c2.234-0.413,4.471-0.86,6.707-1.279
	c-2.732-6.613-5.468-13.211-8.21-19.81c-13.035-51.451-26.067-102.876-39.095-154.321c4.404-1.746,8.809-3.48,13.221-5.214
	c70.513,79.03,102.357,186.098,180.478,260.485c2.187-14.171-1.951-24.526-6.926-34.437
	c-56.864-113.458-113.728-226.912-170.846-340.223c-23.017-45.691-40.425-95.947-71.49-135.356
	c-41.772-53.01-96.938-94.746-53.064-174.893c6-10.95-21.59-55.44-40.506-60.99c-22.759-6.687-44.15,17.465-39.482,49.87
	c3.329,23.131,3.973,46.661,5.817,70.016c-2.991,0.883-5.971,1.762-8.945,2.626c-10.005-12.733-20.016-25.458-30.026-38.181
	c-3.516,1.522-7.029,3.049-10.549,4.579c22.567,53.707,45.131,107.421,68.059,161.986c-19.244,12.89-39.783,26.629-61.085,40.909
	c16.754,36.607,32.233,70.452,47.716,104.311c-4.864,4.268-9.737,8.544-14.604,12.803c-48.201-26.823-96.394-53.65-152.891-85.104
	c-24.693,20.864-61.639,19.521-101.13-9.878c-13.73-10.198-36.606-8.111-55.305-11.643
	c107.935,120.31,230.957,216.468,360.351,304.919c-5.208,14.174-10.417,28.343-17.003,46.271
	c-15.407-9.643-26.326-16.476-37.75-23.612c-18.187,47.185,47.237,154.309,110.784,186.169
	c5.941,17.005,11.869,33.996,17.805,50.998c3.342-1.435,6.686-2.885,10.029-4.329
	C771.935,3119.54,766.024,3103.813,760.119,3088.096z M2247.541,1780.794c-12.352,10.941-26.5,20.438-36.755,33.083
	c-41.97,51.573-42.824,52.149-103.525,15.684c27.787-60.204,55.725-120.698,83.649-181.205c2.375-3.415,4.716-6.818,7.046-10.22
	c-1.199-0.803-2.427-1.601-3.643-2.405c-1.185,4.161-2.39,8.296-3.592,12.448c-50.072,43.931-100.13,87.84-159.378,139.832
	c18.042-51.489,32.062-91.487,46.062-131.505c-23.951,12.212-42.451,27.267-55.23,46.193
	c-30.276,44.861-58.917,90.933-86.201,137.679c-26.062,44.61-63.563,88.596-70.78,136.655
	c-9.899,65.939-40.369,116.56-72.568,170.647c-45.854,77.015-85.58,157.668-127.935,236.767c4.531,2.965,9.045,5.937,13.593,8.926
	c41.768-30.148,83.561-60.291,125.352-90.439c2.415,2.529,4.841,5.068,7.271,7.597c-30.92,48.228-61.854,96.472-92.788,144.709
	c3.292,3.077,6.602,6.148,9.899,9.216c43.687-26.984,86.779-55.025,131.36-80.433c18.381-10.475,45.351-26.799,59.058-20.421
	c34.149,15.901,62.937,43.317,92.894,65.375c-46.504,81.969-89.504,157.72-132.491,233.456c3.435,2.069,6.847,4.115,10.264,6.194
	c48.432-53.136,102.679-102.183,143.683-160.538c41.871-59.61,105.163-58.28,164.314-86.456c-2.609,35.233-4.585,61.73-6.573,88.203
	c5.181,1.421,10.358,2.819,15.507,4.208c46.398-126.017,89.505-253.384,140.127-377.713
	c44.86-110.146,22.618-218.917,12.884-337.988c-45.835,53.857-85.219,100.107-133.389,156.717
	c-3.463-27.944-8.028-40.314-5.841-51.367c8.103-41.143,18.446-81.854,27.949-122.729c2.347-3.41,4.677-6.812,7.046-10.215
	c-1.228-0.805-2.429-1.608-3.651-2.391C2249.958,1772.501,2248.742,1776.635,2247.541,1780.794z M2313.912,3050.113l0.193,0.202
	c7.257,7.25,17.882,22.114,21.294,20.602c37.083-16.353,78.478-29.035,108.07-54.908c48.979-42.792,101.882-58.092,164.092-50.972
	c6.422,2.666,12.875,5.337,19.312,8.008c0.604-2.165,1.188-4.334,1.78-6.496c-6.972-0.578-13.943-1.151-20.918-1.729
	c-7.795-12.049-15.562-24.096-25.486-39.441c19.292-5.163,35.138-9.401,53.846-14.416c-5.559-19.076-10.568-36.32-17.384-59.764
	c56.326,0,108.561,0,167.786,0c-29.342-41.492-53.746-76.034-81.755-115.665c57.582-11.376,104.909-20.693,151.39-29.862
	c-38.649-61.895-103.488-63.244-160.245-81.328c-21.547-6.88-65.257-75.282-60.137-96.78
	c21.383-89.84,11.173-177.497-17.625-263.814c-16.897-50.616-31.589-101.889-19.334-155.392
	c8.15-35.639,21.587-70.086,32.651-105.076c-5.297-2.12-10.577-4.235-15.852-6.359c-11.896,31.4-23.797,62.797-35.699,94.189
	c-4.042,0.479-8.125,0.962-12.218,1.454c-5.568-17.533-14.792-34.851-15.769-52.619c-1.102-19.816,5.309-40.022,8.438-60.055
	c2.355-3.422,4.699-6.823,7.055-10.227c-1.213-0.809-2.438-1.598-3.66-2.398c-1.201,4.141-2.395,8.293-3.597,12.448
	c-52.023-0.507-14.419-47.516-27.297-59.698c-21.286,55.147-39.717,114.517-66.502,169.859
	c-52.501,108.423-110.491,214.151-164.265,321.958c-14.542,29.177-18.888,63.422-33.438,92.576
	c-61.684,123.542-128.035,244.832-187.186,369.557c-25.902,54.592-38.589,115.475-57.26,173.496
	c4.653,1.803,9.304,3.597,13.958,5.374c61.307-95.736,122.615-191.489,183.931-287.228c3.831,2.39,7.675,4.782,11.514,7.163
	c-60.957,136.974-121.92,273.945-182.891,410.916c1.789,4.069,3.574,8.131,5.371,12.194c46.105-22.393,92.256-44.792,138.358-67.205
	c-0.974,23.319-8.723,38.02-17.44,52.08c-9.045,14.602-19.067,28.636-26.739,40.059c8.771,12.047,16.079,22.049,23.988,32.939
	c42.955-11.483,103.18-101.907,107.95-156.362C2283.629,3080.825,2302.847,3065.833,2313.912,3050.113z M1567.84,2509.401
	c8.641-40.467,10.531-83.968,27.206-120.785c45.316-99.971,98.194-196.493,145.546-295.581
	c34.813-72.833,67.308-146.146,53.889-231.988c-4.816-30.961,2.836-66.093,12.765-96.723
	c32.854-101.187,91.649-187.822,154.956-272.693c68.968-92.497,122.805-190.784,117.064-314.699
	c-3.133-66.885-31.39-107.462-86.139-132.868c-190.498-88.39-391.091-122.731-601.08-117.096
	c-132.776,3.571-259.019,20.936-372.745,94.496c-9.037,5.847-20.679,7.487-30.559,12.212
	c-63.242,30.277-105.53,90.933-108.597,149.305c-3.171,60.406,27.128,129.783,61.371,183.348
	c62.269,97.396,136.947,187.059,209.022,277.909c57.363,72.297,115.868,144.11,179.271,211.011
	c29.24,30.832,51.975,58.289,57.847,102.487c14.974,112.857,51.231,218.802,107.393,318.989
	C1535.257,2348.427,1584.657,2419.528,1567.84,2509.401z M798.999,3284.036c0.913-2.327,1.821-4.668,2.737-6.998
	c-32.516,14.214-69.044,23.051-96.761,43.721c-65.83,49.07-127.486,103.739-198.006,162.116c2.69,9.044,9.7,31.114,15.775,53.43
	c9.814,36.031,67.044,68.327,100.406,54.95c7.442-2.962,17.156-11.776,17.723-18.563c3.315-40.128,3.896-80.466,6.168-120.687
	c0.768-13.807-1.345-32.939,6.564-40.335C700.654,3367.605,750.248,3326.282,798.999,3284.036z M1470.82,3770.311
	c20.246-306.502,40.483-612.993,61.344-928.754C1445.069,3152.433,1488.224,3463.612,1470.82,3770.311z M709.878,3676.384
	c-10.811,32.622-18.171,54.854-27.028,81.587c56.64,0,106.027,0,155.846,0c-1.652-26.854-3.13-50.906-5.296-86.187
	c-20.031,32.472-34.123,55.313-46.581,75.513C762.618,3724.997,741.083,3705.147,709.878,3676.384z M951.96,3627.257
	c79.698-155.565,98.722-235.302,75.099-290.899C1003.549,3427.423,978.914,3522.863,951.96,3627.257z M2151.207,3769.807
	c3.927-4.264,7.84-8.541,11.765-12.799c-18.739-17.763-37.479-35.536-56.244-53.287c-4.283,4.673-8.569,9.33-12.864,13.994
	C2112.984,3735.079,2132.091,3752.438,2151.207,3769.807z M2077.921,3661.586c-2.973,1.54-5.927,3.084-8.903,4.63
	c4.093,6.793,8.185,13.579,12.269,20.366c1.922-1.02,3.868-2.022,5.767-3.054
	C2084.018,3676.213,2080.957,3668.896,2077.921,3661.586z M1862.814,2687.518c-0.427,1.136-0.846,2.267-1.273,3.389
	c1.664,0.152,3.343,0.321,5.012,0.478c-0.245-1.186-0.156-2.611-0.82-3.48C1865.326,2687.344,1863.836,2687.615,1862.814,2687.518z
	 M1047.547,3037.038c-0.228-1.014-0.12-2.509-0.746-2.947c-0.934-0.684-2.387-0.598-3.62-0.854c0.339,1.72,0.667,3.409,1.005,5.109
	C1045.309,3037.898,1046.433,3037.485,1047.547,3037.038z"/>
<path fill="#E3E3E3" stroke="#E3E3E3" stroke-width="18" d="M4554.355,2903.15h-201.893l-139.909-920.032l-140.794,920.032h-206.321
	l-171.787-1219.331h154.077l130.168,1050.201l146.107-908.521h188.611l139.023,908.521l146.107-1050.201h142.566L4554.355,2903.15z"
	/>
<path fill="#E3E3E3" stroke="#E3E3E3" stroke-width="18" d="M5398.227,2785.379h262.993v117.771h-699.543v-117.771h287.786v-696.888
	h-278.931V1970.72h427.695V2785.379z M5388.486,1637.773c0,60.214-42.504,106.26-108.916,106.26
	c-62.87,0-107.146-46.046-107.146-106.26c0-58.442,44.275-103.603,107.146-103.603
	C5345.982,1534.17,5388.486,1579.331,5388.486,1637.773z"/>
<path fill="#E3E3E3" stroke="#E3E3E3" stroke-width="18" d="M6335.9,2672.921c0,92.091,63.756,126.626,154.077,126.626
	c55.786,0,106.26-12.397,156.733-32.763l39.847,108.916c-50.473,24.794-127.511,47.817-221.374,47.817
	c-165.589,0-278.046-96.519-278.046-258.565v-951.911h-286.017v-117.771H6335.9V2672.921z"/>
<path fill="#E3E3E3" stroke="#E3E3E3" stroke-width="18" d="M7399.49,2672.921c0,92.091,63.756,126.626,154.078,126.626
	c55.786,0,106.259-12.397,156.732-32.763l39.847,108.916c-50.473,24.794-127.511,47.817-221.374,47.817
	c-165.588,0-278.047-96.519-278.047-258.565v-951.911H6964.71v-117.771h434.779V2672.921z"/>
<path fill="#E3E3E3" stroke="#E3E3E3" stroke-width="18" d="M8570.996,2785.379h262.992v117.771h-699.542v-117.771h287.787v-696.888
	h-278.931V1970.72h427.695V2785.379z M8561.256,1637.773c0,60.214-42.504,106.26-108.916,106.26
	c-62.871,0-107.146-46.046-107.146-106.26c0-58.442,44.275-103.603,107.146-103.603
	C8518.752,1534.17,8561.256,1579.331,8561.256,1637.773z"/>
<path fill="#E3E3E3" stroke="#E3E3E3" stroke-width="18" d="M9905.434,2819.028l-36.305,104.489
	c-80.582-10.626-144.336-47.817-170.902-131.054c-66.412,86.779-171.787,131.054-292.215,131.054
	c-186.84,0-301.068-114.229-301.068-287.787c0-192.153,154.076-298.413,437.436-298.413h137.252v-77.924
	c0-134.596-83.236-185.069-222.26-185.069c-61.984,0-146.107,14.168-242.627,47.817l-38.961-112.458
	c113.344-42.503,214.291-58.442,304.611-58.442c232,0,348.885,116.886,348.885,301.069v447.176
	C9829.279,2774.752,9853.189,2803.088,9905.434,2819.028z M9679.631,2678.233v-239.97h-134.596
	c-205.436,0-280.703,76.153-280.703,195.695c0,116,58.443,176.214,179.756,176.214
	C9536.18,2810.173,9623.844,2761.47,9679.631,2678.233z"/>
<path fill="#E3E3E3" stroke="#E3E3E3" stroke-width="18" d="M11019.383,2208.919v694.23h-138.137v-670.322
	c0-116.885-4.428-165.587-71.727-165.587c-55.785,0-111.572,31.877-162.932,111.572v724.337h-139.023v-670.322
	c0-116.885-4.428-165.587-71.725-165.587c-57.557,0-111.572,31.877-162.932,111.572v724.337h-137.252v-932.43h116.885l8.855,108.031
	c50.473-71.726,109.803-127.512,202.779-127.512c70.84,0,139.91,26.564,169.131,123.084
	c50.473-73.496,109.801-123.084,205.434-123.084C10927.291,1951.24,11019.383,1993.744,11019.383,2208.919z"/>
</svg>
